<svg height="40" viewBox="0 0 64 64" width="512" xmlns="http://www.w3.org/2000/svg"><g id="Snare_drum" data-name="Snare drum"><path d="m5 21h54v22h-54z" fill="#ff5023"/><path d="m2 17h60v4h-60z" fill="#cca400"/><path d="m2 43h60v4h-60z" fill="#cca400"/><g fill="#acabb1"><path d="m30 27h4v10h-4z"/><path d="m47 27h4v10h-4z"/><path d="m13 27h4v10h-4z"/></g><path d="m6 14h52v3h-52z" fill="#ffda44"/><path d="m6 47h52v3h-52z" fill="#ffda44"/><path d="m62 22a1 1 0 0 0 1-1v-4a1 1 0 0 0 -1-1h-3v-2a1 1 0 0 0 -1-1h-52a1 1 0 0 0 -1 1v2h-3a1 1 0 0 0 -1 1v4a1 1 0 0 0 1 1h2v20h-2a1 1 0 0 0 -1 1v4a1 1 0 0 0 1 1h3v2a1 1 0 0 0 1 1h52a1 1 0 0 0 1-1v-2h3a1 1 0 0 0 1-1v-4a1 1 0 0 0 -1-1h-2v-20zm-55-7h50v1h-50zm-4 3h58v2h-58zm45 18v-8h2v8zm0-10h-1a1 1 0 0 0 -1 1v10a1 1 0 0 0 1 1h1v4h-15v-4h1a1 1 0 0 0 1-1v-10a1 1 0 0 0 -1-1h-1v-4h15zm-32 2v8h-2v-8zm0 10h1a1 1 0 0 0 1-1v-10a1 1 0 0 0 -1-1h-1v-4h15v4h-1a1 1 0 0 0 -1 1v10a1 1 0 0 0 1 1h1v4h-15zm15-2v-8h2v8zm-25-14h8v4h-1a1 1 0 0 0 -1 1v10a1 1 0 0 0 1 1h1v4h-8zm51 27h-50v-1h50zm4-3h-58v-2h58zm-3-4h-8v-4h1a1 1 0 0 0 1-1v-10a1 1 0 0 0 -1-1h-1v-4h8z"/><path d="m8 23a1 1 0 0 0 -1 1v5a1 1 0 0 0 2 0v-5a1 1 0 0 0 -1-1z"/><path d="m8 31a1 1 0 0 0 -1 1v1a1 1 0 0 0 2 0v-1a1 1 0 0 0 -1-1z"/></g></svg>